<svg width="115" height="25" viewBox="0 0 115 25" fill="none" xmlns="http://www.w3.org/2000/svg">
<path d="M18.4507 17.2427C18.4507 18.4124 18.1769 19.4204 17.6293 20.2667C17.1067 21.088 16.2356 21.8471 15.016 22.544C14.1947 23.0418 13.2364 23.4151 12.1413 23.664C11.0462 23.9129 9.93867 24.0373 8.81867 24.0373C7.67378 24.0373 6.25511 23.664 4.56267 22.9173C3.34311 22.32 2.37244 21.6107 1.65067 20.7893C0.953778 19.968 0.605333 19.072 0.605333 18.1013C0.605333 17.4293 0.754667 16.944 1.05333 16.6453C1.352 16.3218 1.83733 16.16 2.50933 16.16C2.85778 16.16 3.21867 16.3093 3.592 16.608C3.96533 16.8818 4.18933 17.1556 4.264 17.4293C4.61244 18.4498 5.22222 19.2338 6.09333 19.7813C6.96445 20.304 8.04711 20.5653 9.34133 20.5653C10.8347 20.5653 12.0791 20.2916 13.0747 19.744C14.0951 19.1964 14.6053 18.4622 14.6053 17.5413C14.6053 16.6453 14.0578 15.8489 12.9627 15.152C11.8676 14.4551 10.7476 13.9698 9.60267 13.696C7.96 13.248 6.504 12.7129 5.23467 12.0907C3.91556 11.4436 2.93244 10.6471 2.28533 9.70133C1.63822 8.75555 1.31467 7.76 1.31467 6.71466C1.31467 5.744 1.65067 4.76089 2.32267 3.76533C2.99467 2.74489 3.79111 2.01066 4.712 1.56266C5.20978 1.31378 6.056 1.05244 7.25067 0.778664C8.47022 0.479998 9.35378 0.330665 9.90134 0.330665C10.6231 0.330665 11.4196 0.417776 12.2907 0.591997C13.1618 0.76622 13.8711 1.01511 14.4187 1.33866C15.5138 1.96089 16.3227 2.52089 16.8453 3.01866C17.368 3.51644 17.6293 4.13866 17.6293 4.88533C17.6293 5.33333 17.4551 5.73155 17.1067 6.08C16.7831 6.42844 16.2107 6.60266 15.3893 6.60266C15.1902 6.60266 14.9911 6.51555 14.792 6.34133C14.5929 6.16711 14.344 5.90578 14.0453 5.55733C13.6471 5.03466 13.2613 4.68622 12.888 4.512C12.5147 4.38755 11.9671 4.25066 11.2453 4.10133C10.5484 3.952 9.92622 3.87733 9.37867 3.87733C8.78133 3.87733 8.15911 4.00178 7.512 4.25066C6.86489 4.49955 6.31733 4.86044 5.86933 5.33333C5.44622 5.78133 5.23467 6.304 5.23467 6.90133C5.23467 7.39911 5.45867 7.83466 5.90667 8.208C6.37956 8.55644 6.93956 8.84267 7.58667 9.06667C8.33333 9.36533 9.14222 9.62667 10.0133 9.85067C11.1582 10.1991 12.0916 10.5227 12.8133 10.8213C13.56 11.0951 14.2818 11.4436 14.9787 11.8667C16.1982 12.5884 17.0818 13.3351 17.6293 14.1067C18.1769 14.8533 18.4507 15.8987 18.4507 17.2427ZM23.8462 0.0319976C24.7173 0.106663 25.4764 0.343108 26.1235 0.741331C26.7707 1.11466 27.0942 1.68711 27.0942 2.45866C27.0942 3.03111 26.8204 3.49155 26.2729 3.84C25.7502 4.16355 25.1155 4.32533 24.3689 4.32533C23.6471 4.32533 23.1493 4.13866 22.8755 3.76533C22.6018 3.392 22.4649 3.00622 22.4649 2.608C22.4649 1.86133 22.5395 1.23911 22.6889 0.741331C22.8631 0.243553 23.2489 0.00710907 23.8462 0.0319976ZM26.8329 16.5707V17.6533C26.8329 18.624 26.8578 19.5449 26.9075 20.416C26.9822 21.2622 27.0693 22.1209 27.1689 22.992C27.144 23.2409 26.9573 23.5022 26.6089 23.776C26.2604 24.0249 25.9493 24.1493 25.6755 24.1493C25.2027 24.1493 24.7173 24.0622 24.2195 23.888C23.7467 23.6889 23.4604 23.4524 23.3609 23.1787C23.2115 22.3822 23.1369 21.6729 23.1369 21.0507C23.1369 19.0098 23.0747 16.72 22.9502 14.1813C22.8507 11.9413 22.8009 10.3733 22.8009 9.47733C22.8009 9.02933 23.0249 8.64355 23.4729 8.32C23.9209 7.99644 24.3938 7.83466 24.8915 7.83466C25.6133 7.83466 26.1111 7.99644 26.3849 8.32C26.6835 8.64355 26.8329 9.15378 26.8329 9.85067V16.5707ZM48.5183 21.1253C48.6427 21.1751 48.8419 21.2373 49.1156 21.312C49.3894 21.3867 49.5885 21.4613 49.713 21.536C49.8374 21.6107 49.8996 21.7227 49.8996 21.872C49.9245 22.4693 49.7005 22.9671 49.2276 23.3653C48.7796 23.7387 48.2445 23.9253 47.6223 23.9253C46.6516 23.9253 45.8925 23.664 45.345 23.1413C44.7974 22.6187 44.3992 21.8222 44.1503 20.752C44.0507 20.3289 44.001 19.744 44.001 18.9973C44.001 18.5742 44.0259 17.8898 44.0756 16.944C44.1254 15.9484 44.1503 15.152 44.1503 14.5547C44.1503 13.6836 43.9014 12.9244 43.4036 12.2773C42.9307 11.6053 42.2587 11.2693 41.3876 11.2693C40.865 11.2693 40.3174 11.4311 39.745 11.7547C39.1725 12.0533 38.7743 12.4267 38.5503 12.8747C38.177 13.5964 37.9156 14.3804 37.7663 15.2267C37.4925 16.72 37.3556 18.2756 37.3556 19.8933C37.3556 20.6649 37.3681 21.2622 37.393 21.6853C37.393 21.7849 37.393 21.984 37.393 22.2827C37.4179 22.5564 37.393 22.8178 37.3183 23.0667C37.2685 23.2907 37.169 23.5022 37.0196 23.7013C36.8952 23.8258 36.6961 23.9253 36.4223 24C36.1734 24.0996 35.937 24.1493 35.713 24.1493C35.3645 24.1493 34.929 24 34.4063 23.7013C33.8836 23.4027 33.585 23.0667 33.5103 22.6933L33.473 22.0587C33.473 21.8347 33.4978 21.5733 33.5476 21.2747C33.8463 19.5324 33.9956 18.0142 33.9956 16.72C33.9956 16.1476 33.9832 15.6996 33.9583 15.376L33.921 13.6213C33.921 13.024 33.7716 12.4516 33.473 11.904C33.1743 11.3316 32.8258 11.0453 32.4276 11.0453C32.3032 11.0453 32.129 11.0951 31.905 11.1947C31.681 11.2693 31.4943 11.3067 31.345 11.3067C31.0961 11.3067 30.8223 11.1822 30.5236 10.9333C30.2498 10.6844 30.113 10.4231 30.113 10.1493C30.113 9.62666 30.2872 9.20355 30.6356 8.88C31.009 8.58133 31.3698 8.34489 31.7183 8.17066C32.0916 7.99644 32.5147 7.90933 32.9876 7.90933C33.3858 7.90933 33.7094 7.94666 33.9583 8.02133C34.2072 8.096 34.5432 8.25778 34.9663 8.50666C35.1903 8.63111 35.4516 8.90489 35.7503 9.328C36.049 9.75111 36.2978 10.3484 36.497 11.12C37.1441 9.92533 37.9405 9.09155 38.8863 8.61866C39.857 8.12089 41.089 7.872 42.5823 7.872C43.1547 7.872 43.7645 8.05866 44.4116 8.432C45.0836 8.80533 45.6561 9.24089 46.129 9.73866C46.577 10.2862 46.9503 10.9707 47.249 11.792C47.5476 12.5884 47.697 13.3102 47.697 13.9573C47.697 14.3307 47.6721 14.9404 47.6223 15.7867C47.5476 16.4587 47.5103 17.168 47.5103 17.9147C47.5103 19.6569 47.8463 20.7271 48.5183 21.1253ZM66.7903 24.1493C65.9441 24.1493 65.297 24.0249 64.849 23.776C64.401 23.5022 63.9157 23.0044 63.393 22.2827C62.7459 22.8551 61.7752 23.3156 60.481 23.664C59.2117 24.0124 58.1166 24.1867 57.1957 24.1867C55.6774 24.1867 54.4454 23.776 53.4997 22.9547C52.5788 22.1084 52.1183 20.8764 52.1183 19.2587C52.1183 18.5618 52.305 17.9271 52.6783 17.3547C53.0766 16.7573 53.5868 16.2347 54.209 15.7867C54.9059 15.3138 55.7272 14.9404 56.673 14.6667C57.6437 14.3929 58.5272 14.256 59.3237 14.256C60.6677 14.256 61.8623 14.3804 62.9077 14.6293V14.592C62.9077 13.248 62.5717 12.3271 61.8997 11.8293C61.2526 11.3067 60.2072 11.0453 58.7637 11.0453C57.8428 11.0453 57.0463 11.456 56.3743 12.2773C56.1254 12.6009 55.6028 12.7627 54.8063 12.7627C54.4081 12.7627 54.1094 12.6009 53.9103 12.2773C53.7361 11.9289 53.649 11.5804 53.649 11.232C53.649 10.5102 53.9477 9.888 54.545 9.36533C55.1672 8.84266 55.9139 8.45689 56.785 8.208C57.6561 7.93422 58.465 7.79733 59.2117 7.79733C59.9334 7.79733 60.7921 7.94666 61.7877 8.24533C62.7832 8.544 63.5921 8.94222 64.2143 9.44C64.961 10.0871 65.5335 10.8462 65.9317 11.7173C66.3548 12.5636 66.5663 13.4969 66.5663 14.5173C66.5663 14.8409 66.5414 15.3262 66.4917 15.9733C66.4419 16.72 66.417 17.3298 66.417 17.8027C66.417 18.0267 66.3921 18.3129 66.3423 18.6613C66.2926 19.1093 66.2677 19.4827 66.2677 19.7813C66.2677 20.1049 66.3672 20.416 66.5663 20.7147C66.7655 21.0133 67.0392 21.2622 67.3877 21.4613C67.7112 21.6356 67.9228 21.8222 68.0223 22.0213C68.1219 22.2204 68.1717 22.4444 68.1717 22.6933C68.1717 22.9422 68.0099 23.2533 67.6863 23.6267C67.3877 23.9751 67.089 24.1493 66.7903 24.1493ZM59.3237 17.0187C58.353 17.0187 57.4943 17.2053 56.7477 17.5787C56.001 17.952 55.6277 18.6116 55.6277 19.5573C55.6277 20.0302 55.7894 20.4284 56.113 20.752C56.4614 21.0756 56.8348 21.2373 57.233 21.2373C58.3032 21.2373 59.1992 21.1253 59.921 20.9013C60.6428 20.6773 61.5139 20.2667 62.5343 19.6693C62.6588 19.2711 62.7334 18.7111 62.7583 17.9893C62.7583 17.7156 62.7708 17.504 62.7957 17.3547C61.4517 17.1307 60.2943 17.0187 59.3237 17.0187ZM70.568 11.4187C70.3689 11.4187 70.1947 11.344 70.0453 11.1947C69.896 11.0204 69.8213 10.8213 69.8213 10.5973C69.8213 9.87555 70.0578 9.328 70.5307 8.95466C71.0036 8.55644 71.5885 8.35733 72.2853 8.35733C73.256 8.35733 74.0898 8.61866 74.7867 9.14133C75.5085 9.63911 75.8693 10.3609 75.8693 11.3067C75.8693 11.5556 75.8196 12.5013 75.72 14.144C75.6205 16.0356 75.5707 17.2924 75.5707 17.9147C75.5707 18.7858 75.7325 19.4951 76.056 20.0427C76.4045 20.5653 76.9396 20.8267 77.6613 20.8267C79.0551 20.8267 80.1253 20.0551 80.872 18.512C81.6436 16.944 82.1538 15.0276 82.4027 12.7627C82.5022 11.7671 82.6516 10.7218 82.8507 9.62666C82.9502 9.02933 83.0871 8.59378 83.2613 8.32C83.4356 8.04622 83.7716 7.90933 84.2693 7.90933C84.5929 7.90933 84.9662 7.984 85.3893 8.13333C85.8373 8.28266 86.1236 8.48178 86.248 8.73067C86.3973 9.104 86.472 9.51466 86.472 9.96267C86.472 10.5849 86.3849 11.3938 86.2107 12.3893C86.0116 13.3849 85.8747 14.4676 85.8 15.6373C85.7502 16.6827 85.912 17.7778 86.2853 18.9227C86.6587 20.0676 87.1938 20.8142 87.8907 21.1627C88.6871 21.5609 89.0853 21.9218 89.0853 22.2453C89.0853 22.768 88.8987 23.1787 88.5253 23.4773C88.152 23.776 87.7911 23.9253 87.4427 23.9253C86.5218 23.9253 85.688 23.5893 84.9413 22.9173C84.2196 22.2453 83.6969 21.4116 83.3733 20.416C82.8507 21.2124 82.3405 21.872 81.8427 22.3947C81.3698 22.8924 80.76 23.3156 80.0133 23.664C79.2667 23.9876 78.3458 24.1493 77.2507 24.1493C75.9565 24.1493 74.7742 23.6889 73.704 22.768C72.6587 21.8471 72.136 20.2667 72.136 18.0267C72.136 17.4044 72.1485 16.7449 72.1733 16.048C72.2231 15.3511 72.248 14.8533 72.248 14.5547C72.3227 13.6587 72.36 12.8373 72.36 12.0907C72.36 11.8667 72.2729 11.68 72.0987 11.5307C71.9493 11.3813 71.7751 11.3067 71.576 11.3067C71.4267 11.3067 71.2525 11.3316 71.0533 11.3813C70.8791 11.4062 70.7173 11.4187 70.568 11.4187ZM108.971 15.1147C109.121 14.5671 109.283 13.8204 109.457 12.8747C109.706 11.7547 109.905 10.9084 110.054 10.336C110.203 9.76355 110.403 9.27822 110.651 8.88C110.925 8.432 111.162 8.13333 111.361 7.984C111.585 7.83466 111.821 7.76 112.07 7.76C113.364 7.76 114.011 8.25778 114.011 9.25333C114.011 9.75111 113.812 10.6844 113.414 12.0533C112.095 16.0356 111.149 19.1218 110.577 21.312C110.328 22.2329 109.955 22.9422 109.457 23.44C108.959 23.9129 108.287 24.1493 107.441 24.1493C107.018 24.1493 106.582 23.9502 106.134 23.552C105.711 23.1289 105.363 22.6187 105.089 22.0213L104.678 21.0133C103.981 19.2462 103.459 17.8898 103.11 16.944C102.787 15.9733 102.575 15.1022 102.475 14.3307L102.139 15.5253C101.542 17.6658 100.92 19.6569 100.273 21.4987C99.9492 22.4444 99.551 23.1289 99.0781 23.552C98.6052 23.9502 97.9955 24.1493 97.2488 24.1493C96.8008 24.1493 96.4026 24.0498 96.0541 23.8507C95.7306 23.6516 95.4195 23.3156 95.1208 22.8427C94.7226 22.1956 94.3368 21.3244 93.9635 20.2293C93.615 19.1342 93.1048 17.4293 92.4328 15.1147C92.1092 14.1191 91.8106 13.0738 91.5368 11.9787C91.263 10.8587 91.1261 10.0747 91.1261 9.62666C91.1261 9.104 91.263 8.69333 91.5368 8.39467C91.8106 8.096 92.2088 7.94667 92.7315 7.94667C93.4035 7.94667 93.8764 8.08355 94.1501 8.35733C94.4239 8.60622 94.6728 8.992 94.8968 9.51467C95.0212 10.4107 95.295 11.68 95.7181 13.3227L96.5395 16.832C96.5892 17.1058 96.7386 17.6782 96.9875 18.5493L97.2861 19.632C97.8337 18.4622 98.2941 17.3422 98.6675 16.272C99.0408 15.2018 99.4515 13.8827 99.8995 12.3147C99.9244 12.2151 100.173 11.3564 100.646 9.73866C100.97 9.216 101.256 8.83022 101.505 8.58133C101.754 8.30755 102.003 8.17066 102.251 8.17066C102.749 8.17066 103.172 8.33244 103.521 8.656C103.894 8.95467 104.168 9.328 104.342 9.776C104.641 10.7467 104.902 11.6302 105.126 12.4267C105.226 12.7502 105.45 13.5342 105.798 14.7787C106.171 15.9982 106.507 17.0311 106.806 17.8773C107.105 18.7236 107.354 19.3209 107.553 19.6693L108.971 15.1147Z" fill="url(#paint0_linear)"/>
<defs>
<linearGradient id="paint0_linear" x1="57.5926" y1="-17" x2="57.5926" y2="39" gradientUnits="userSpaceOnUse">
<stop stop-color="#C7CAFE"/>
<stop offset="1" stop-color="#3D408F"/>
</linearGradient>
</defs>
</svg>
