<svg width="66" height="66" viewBox="0 0 66 66" fill="none" xmlns="http://www.w3.org/2000/svg">
<circle cx="32.7081" cy="32.7081" r="23.5" transform="rotate(119.509 32.7081 32.7081)" stroke="url(#paint0_linear)"/>
<path d="M34.1425 30.2427C34.2859 30.2427 34.4242 30.2657 34.5574 30.3041L37.0419 27.2587C37.2007 27.064 37.4953 27.0281 37.6874 27.1921C37.8744 27.3483 37.9 27.6275 37.7437 27.817L35.2874 30.8292C35.4539 31.0597 35.5538 31.3441 35.5538 31.6514C35.5538 32.2226 35.2105 32.717 34.7213 32.9372H44.3597C44.7132 32.9372 45.0001 32.6504 45.0001 32.2969V24.1901C45.0001 23.8367 44.7132 23.5498 44.3597 23.5498H32.1164C31.7629 23.5498 31.4761 23.8367 31.4761 24.1901V29.5127L32.0549 30.2452H34.1425V30.2427Z" fill="url(#paint1_linear)"/>
<path d="M26.156 26.7438C27.6045 26.7438 28.7788 25.5696 28.7788 24.121C28.7788 22.6725 27.6045 21.4982 26.156 21.4982C24.7074 21.4982 23.5331 22.6725 23.5331 24.121C23.5331 25.5696 24.7074 26.7438 26.156 26.7438Z" fill="url(#paint2_linear)"/>
<path d="M28.8455 43.8615C28.8455 44.215 28.5586 44.5018 28.2051 44.5018H27.1293C26.7759 44.5018 26.489 44.215 26.489 43.8615V38.4928C26.489 38.3033 26.3353 38.1496 26.1458 38.1496C25.9562 38.1496 25.8026 38.3033 25.8026 38.4928V43.8358C25.8026 44.2021 25.5029 44.5018 25.1366 44.5018H24.0839C23.7304 44.5018 23.4435 44.215 23.4435 43.8615L23.4384 30.901C23.4384 30.7268 23.2975 30.5834 23.1208 30.5834C22.9466 30.5834 22.8032 30.7242 22.8032 30.901V35.8854C22.8032 36.2388 22.5163 36.5257 22.1629 36.5257H21.6403C21.2869 36.5257 21 36.2388 21 35.8854V29.0516C21 28.2397 21.6583 27.584 22.4677 27.584H28.2999C28.9248 27.584 29.5165 27.8709 29.9059 28.3601L31.4734 30.3375L31.8038 30.755C31.8038 30.755 33.2894 30.755 34.1449 30.7575C34.4984 30.7575 34.7852 31.0444 34.7852 31.3979V31.9076C34.7852 32.261 34.4984 32.5479 34.1449 32.5479H31.3735C31.0995 32.5479 30.8408 32.4224 30.6717 32.2072L29.5037 30.7063C29.4448 30.6294 29.3501 30.5833 29.2527 30.5833H29.1733C28.9991 30.5833 28.8557 30.7242 28.8557 30.9009L28.8455 43.8615Z" fill="url(#paint3_linear)"/>
<circle cx="13" cy="39" r="1" fill="#6ABC9C"/>
<circle cx="48" cy="12" r="1" fill="#6ABC9C"/>
<circle cx="5.5" cy="40.5" r="0.5" fill="#6ABC9C"/>
<circle cx="10.5" cy="45.5" r="0.5" fill="#6ABC9C"/>
<circle cx="52.5" cy="16.5" r="0.5" fill="#6ABC9C"/>
<circle cx="49.5" cy="23.5" r="0.5" fill="#6ABC9C"/>
<defs>
<linearGradient id="paint0_linear" x1="32.7081" y1="8.70811" x2="32.7081" y2="56.7081" gradientUnits="userSpaceOnUse">
<stop stop-color="#4DB88D"/>
<stop offset="1" stop-color="#2C2E59"/>
</linearGradient>
<linearGradient id="paint1_linear" x1="38.2381" y1="23.5498" x2="38.2381" y2="32.9372" gradientUnits="userSpaceOnUse">
<stop stop-color="#4DB68D"/>
<stop offset="1" stop-color="#8CC3AE"/>
</linearGradient>
<linearGradient id="paint2_linear" x1="26.156" y1="21.4982" x2="26.156" y2="26.7438" gradientUnits="userSpaceOnUse">
<stop stop-color="#4DB68D"/>
<stop offset="1" stop-color="#8CC3AE"/>
</linearGradient>
<linearGradient id="paint3_linear" x1="27.8926" y1="27.584" x2="27.8926" y2="44.5018" gradientUnits="userSpaceOnUse">
<stop stop-color="#4DB68D"/>
<stop offset="1" stop-color="#8CC3AE"/>
</linearGradient>
</defs>
</svg>
